<svg xmlns="http://www.w3.org/2000/svg" width="160" height="28" viewBox="0 0 160 28"><g><g><path fill="#393c49" d="M21.239.519a.795.795 0 0 1 .255-.379.639.639 0 0 1 .412-.14h2.05c.24 0 .404.05.503.148.099.099.148.23.148.412 0 .074-.016.165-.058.296L20.31 11.06c.806 1.952 1.605 3.895 2.396 5.822a3936.72 3936.72 0 0 1 1.69 4.087v.001l.714 1.727c1.379-3.405 2.765-6.789 4.144-10.157l.336-.821c1.5-3.64 2.99-7.305 4.489-10.994.098-.223.222-.404.37-.527.148-.132.354-.198.626-.198h1.557c.263 0 .46.05.593.148.14.1.205.23.205.412 0 .027-.005.06-.012.099l-.004.025-.013.042a.287.287 0 0 1-.028.073l-10.78 25.9a.314.314 0 0 1-.074.148l-.058.115c-.041.075-.082.149-.148.23a.974.974 0 0 1-.256.223.782.782 0 0 1-.395.1h-1.128c-.321 0-.544-.083-.675-.248a1.072 1.072 0 0 1-.23-.453L18.66 14.94l-4.908 11.76c-.066.296-.198.51-.412.634a1.201 1.201 0 0 1-.61.181h-1.004a.727.727 0 0 1-.37-.082 1.21 1.21 0 0 1-.256-.19 1.524 1.524 0 0 1-.181-.238 2.224 2.224 0 0 1-.099-.206L.058.856A.305.305 0 0 0 .025.733.627.627 0 0 1 0 .56C0 .181.23 0 .684 0h1.803c.42 0 .733.28.955.832l8.92 21.865zM62.712 0c.551 0 .831.288.831.873v1.499c0 .222-.074.42-.222.593-.148.173-.362.263-.65.263H47.279v8.186h12.246c.222 0 .412.066.576.206.157.132.239.346.239.65v1.516c0 .222-.066.42-.206.593-.14.173-.337.255-.61.255H47.28v9.66h15.565c.551 0 .831.288.831.873V26.7c0 .543-.271.815-.815.815H44.882c-.543 0-.815-.255-.815-.774V.856c0-.576.272-.856.815-.856zm38.59 21.494H87.829l-2.091 5.279c-.198.494-.536.741-1.021.741h-1.59c-.535 0-.799-.198-.799-.593 0-.107.008-.222.033-.346a.394.394 0 0 1 .058-.132l3.533-8.498c.953-2.311 1.798-4.33 2.526-6.07l.134-.32a940.43 940.43 0 0 1 1.902-4.571L91.8 3.92l.011-.027a80.193 80.193 0 0 1 1.005-2.397v-.001h.001c.068-.16.124-.289.169-.391L93.108.8l.025-.06.016-.057c.05-.132.132-.28.248-.445.115-.157.345-.239.675-.239h1.095c.313 0 .519.082.642.239.116.165.206.313.264.445l10.673 25.776c0 .01.01.04.029.09l.001.002.001.001.035.096a.81.81 0 0 1 .066.272c0 .198-.074.346-.231.445-.156.099-.354.148-.601.148h-1.598a1 1 0 0 1-.617-.19 1.237 1.237 0 0 1-.379-.51zm-12.139-3.146h10.838L94.615 4.785zm39.777-5.731a5.644 5.644 0 0 0 1.161-1.771 5.29 5.29 0 0 0 .428-2.117c0-.74-.14-1.449-.428-2.116a5.965 5.965 0 0 0-1.169-1.77 5.634 5.634 0 0 0-1.754-1.22 5.302 5.302 0 0 0-2.191-.452h-8.318v11.1h8.376c.774 0 1.499-.148 2.166-.444a5.5 5.5 0 0 0 1.729-1.21zM113.466.889c0-.288.066-.502.222-.658.148-.157.338-.231.593-.231h10.706c1.227 0 2.364.23 3.418.684a8.705 8.705 0 0 1 2.759 1.885 8.577 8.577 0 0 1 1.852 2.784 8.553 8.553 0 0 1 .684 3.393c0 .881-.124 1.713-.371 2.52a9.075 9.075 0 0 1-1.037 2.232 8.947 8.947 0 0 1-1.598 1.836 8.55 8.55 0 0 1-2.059 1.326l4.876 10.039c.065.148.09.263.09.337a.416.416 0 0 1-.173.338c-.115.099-.28.14-.494.14h-1.869c-.247 0-.445-.058-.585-.181a1.476 1.476 0 0 1-.362-.519l-4.48-9.43c-.14.025-.28.034-.429.042-.148.008-.345.008-.593.008h-7.947V26.7c0 .543-.271.815-.815.815h-1.573c-.552 0-.815-.272-.815-.815zm45.92-.074v1.516a.934.934 0 0 1-.231.634c-.156.173-.379.263-.659.263h-7.914v23.454a.873.873 0 0 1-.214.593c-.14.165-.354.24-.634.24h-1.507a.837.837 0 0 1-.609-.231c-.165-.157-.239-.355-.239-.602V3.228h-7.947a.873.873 0 0 1-.61-.214c-.148-.148-.23-.37-.23-.683V.815c0-.247.082-.444.23-.593.157-.148.354-.222.61-.222h19.064c.223 0 .42.066.593.206.173.132.272.338.297.61z"/></g></g></svg>