<svg xmlns="http://www.w3.org/2000/svg" width="18" height="18" viewBox="0 0 18 18"><g><g><g><path fill="#949597" d="M8.241 6.105a2.165 2.165 0 1 1-4.33 0 2.165 2.165 0 0 1 4.33 0"/></g><g><path fill="#949597" d="M14.091 6.105a2.165 2.165 0 1 1-4.33 0 2.165 2.165 0 0 1 4.33 0"/></g><g><path fill="#949597" d="M8.241 11.895a2.165 2.165 0 1 1-4.33 0 2.165 2.165 0 0 1 4.33 0"/></g><g><path fill="#949597" d="M14.091 11.895a2.165 2.165 0 1 1-4.33 0 2.165 2.165 0 0 1 4.33 0"/></g><g><g><path fill="#949597" d="M9.008 17.826l-.243-.004C4.01 17.693.18 13.785.18 8.998.18 4.13 4.14.17 9.008.17c4.868 0 8.828 3.96 8.828 8.828 0 4.868-3.96 8.828-8.828 8.828zm0-.79c4.433 0 8.04-3.606 8.04-8.038S13.442.959 9.009.959l-.233.004C4.45 1.086.967 4.643.967 8.998c0 4.432 3.607 8.038 8.04 8.038z"/></g></g></g></g></svg>